<?xml version="1.0" encoding="UTF-8" standalone="no"?>
<!-- Created with Inkscape (http://www.inkscape.org/) -->

<svg
   width="300"
   height="200"
   viewBox="0 0 79.374999 52.916667"
   version="1.1"
   id="svg1688"
   xmlns="http://www.w3.org/2000/svg"
   xmlns:svg="http://www.w3.org/2000/svg"
   xmlns:rdf="http://www.w3.org/1999/02/22-rdf-syntax-ns#"
   xmlns:cc="http://creativecommons.org/ns#"
   xmlns:dc="http://purl.org/dc/elements/1.1/">
  <defs
     id="defs1682">
    <filter
       style="color-interpolation-filters:sRGB"
       id="filter1089"
       x="-0.0086862375"
       y="-0.086939039"
       width="1.0173725"
       height="1.1738781">
      <feGaussianBlur
         stdDeviation="0.2780764"
         id="feGaussianBlur1091" />
    </filter>
  </defs>
  <metadata
     id="metadata1685">
    <rdf:RDF>
      <cc:Work
         rdf:about="">
        <dc:format>image/svg+xml</dc:format>
        <dc:type
           rdf:resource="http://purl.org/dc/dcmitype/StillImage" />
      </cc:Work>
    </rdf:RDF>
  </metadata>
  <g
     id="layer1"
     transform="translate(0,-259.95833)">
    <g
       id="g1120"
       style="opacity:0.6497836">
      <ellipse
         transform="rotate(43.661262)"
         ry="8.1120872"
         rx="20.485588"
         cy="176.22466"
         cx="219.27399"
         id="path5076-4-5-3"
         style="fill:#b77815;fill-opacity:1;stroke:none;stroke-width:0.768398;stroke-linecap:round;stroke-linejoin:round;stroke-miterlimit:4;stroke-dasharray:none;stroke-dashoffset:0;stroke-opacity:1;paint-order:normal" />
      <ellipse
         transform="rotate(43.661262)"
         ry="8.1120872"
         rx="20.485588"
         cy="175.88026"
         cx="219.25722"
         id="path5076-4-3"
         style="fill:#cc8a21;fill-opacity:1;stroke:none;stroke-width:0.768398;stroke-linecap:round;stroke-linejoin:round;stroke-miterlimit:4;stroke-dasharray:none;stroke-dashoffset:0;stroke-opacity:1;paint-order:normal" />
      <ellipse
         transform="rotate(43.661262)"
         ry="8.0415478"
         rx="20.307453"
         cy="175.1252"
         cx="219.33357"
         id="path5076-2"
         style="fill:#444543;fill-opacity:1;stroke:none;stroke-width:0.761716;stroke-linecap:round;stroke-linejoin:round;stroke-miterlimit:4;stroke-dasharray:none;stroke-dashoffset:0;stroke-opacity:1;paint-order:normal" />
      <path
         id="path5102-1"
         d="m 31.369428,283.12733 3.80538,3.40293 0.897114,-2.43286 -2.776533,-2.50902 z"
         style="fill:#e3a02a;fill-opacity:1;stroke:none;stroke-width:0.201537px;stroke-linecap:butt;stroke-linejoin:miter;stroke-opacity:1" />
      <path
         id="path5104-9"
         d="m 22.749744,270.50425 1.716546,3.74875 3.527712,0.76352 -1.780054,-3.00029 z"
         style="fill:#e3a02a;fill-opacity:1;stroke:none;stroke-width:0.201537px;stroke-linecap:butt;stroke-linejoin:miter;stroke-opacity:1" />
      <path
         id="path5106-8"
         d="m 23.191627,263.99617 2.452679,2.1296 1.758679,-0.99506 -1.902945,-2.09745 z"
         style="fill:#e3a02a;fill-opacity:1;stroke:none;stroke-width:0.201537px;stroke-linecap:butt;stroke-linejoin:miter;stroke-opacity:1" />
      <path
         id="path5183-3"
         d="m 33.946511,275.56139 8.467753,15.74951 c 6.38041,3.45075 9.44761,1.45315 9.81571,1.03056 l -8.39898,-14.34717 z"
         style="fill:#1c191a;fill-opacity:1;stroke:none;stroke-width:0.201537px;stroke-linecap:butt;stroke-linejoin:miter;stroke-opacity:1" />
      <path
         id="path5108-9"
         d="m 44.288624,292.18506 c 1.2205,0.62376 3.33135,1.04019 3.67835,1.048 l -1.63445,-2.9317 -3.18053,-1.31161 z"
         style="fill:#825000;fill-opacity:1;stroke:none;stroke-width:0.201537px;stroke-linecap:butt;stroke-linejoin:miter;stroke-opacity:1" />
      <path
         id="path5110-0"
         d="m 53.416384,288.0389 -0.1708,2.70389 -1.75563,-1.56991 0.0323,-2.46666 z"
         style="fill:#e3a02a;fill-opacity:1;stroke:none;stroke-width:0.201537px;stroke-linecap:butt;stroke-linejoin:miter;stroke-opacity:1" />
      <path
         id="path5112-5"
         d="m 49.349314,279.21528 1.87,2.99818 -1.99691,-0.7273 -1.69633,-2.49826 z"
         style="fill:#e3a02a;fill-opacity:1;stroke:none;stroke-width:0.201537px;stroke-linecap:butt;stroke-linejoin:miter;stroke-opacity:1" />
      <path
         id="path5114-2"
         d="m 32.119507,264.39051 3.153803,1.70822 0.598499,2.11894 -2.590664,-1.4874 z"
         style="fill:#e3a02a;fill-opacity:1;stroke:none;stroke-width:0.201537px;stroke-linecap:butt;stroke-linejoin:miter;stroke-opacity:1" />
      <path
         id="path5146-6"
         d="m 37.942487,266.19834 -5.068092,5.33668 c 0.164568,5.9526 6.63659,10.58687 10.990569,10.63784 l 5.20591,-5.42901 z"
         style="fill:#525058;fill-opacity:1;stroke:none;stroke-width:0.201537px;stroke-linecap:butt;stroke-linejoin:miter;stroke-opacity:1" />
      <path
         id="path5148-6"
         d="m 41.737452,261.93505 -5.480299,5.65994 c -0.795182,5.18592 6.097381,11.3064 11.483151,10.84962 l 5.41312,-5.63985 z"
         style="fill:#767677;fill-opacity:1;stroke:none;stroke-width:0.201537px;stroke-linecap:butt;stroke-linejoin:miter;stroke-opacity:1" />
      <ellipse
         transform="rotate(43.661262)"
         ry="2.5911946"
         rx="7.9805198"
         cy="160.87544"
         cx="218.94107"
         id="path5150-4"
         style="fill:#c5c5c5;fill-opacity:1;stroke:none;stroke-width:0.761716;stroke-linecap:round;stroke-linejoin:round;stroke-miterlimit:4;stroke-dasharray:none;stroke-dashoffset:0;stroke-opacity:1;paint-order:normal" />
      <path
         id="path5152-7"
         d="m 48.861324,266.09872 0.0496,6.00905 c 2.65645,1.76094 4.069,1.31974 4.29496,0.78295 z"
         style="fill:#a7aaa8;fill-opacity:1;stroke:none;stroke-width:0.198424px;stroke-linecap:butt;stroke-linejoin:miter;stroke-opacity:1" />
      <path
         id="path5154-3"
         d="m 48.604714,265.94695 c -0.008,0.35019 0.24963,0.49941 0.48452,0.47482 l 0.3601,-0.60741 c 0.0297,-0.093 -0.123,-0.25861 -0.25784,-0.24112 z"
         style="fill:#28282b;fill-opacity:1;stroke:none;stroke-width:0.201537px;stroke-linecap:butt;stroke-linejoin:miter;stroke-opacity:1" />
      <path
         id="path5175-6"
         d="m 49.280854,265.74326 c 0,0 0.0901,0.0842 0.16848,0.0711 l -0.3601,0.60742 c 0,0 -0.18326,0.0322 -0.30842,-0.0762 z"
         style="fill:#c8c0c5;fill-opacity:1;stroke:none;stroke-width:0.201537px;stroke-linecap:butt;stroke-linejoin:miter;stroke-opacity:1" />
      <path
         id="path5177-0"
         d="m 42.028914,265.14828 -2.074689,2.17396 c 0,0 -0.935916,-1.92542 -0.691381,-2.89843 l 2.075842,-2.12311 c -0.26225,1.30433 0.690228,2.84758 0.690228,2.84758 z"
         style="fill:#000000;fill-opacity:1;stroke:none;stroke-width:0.201537px;stroke-linecap:butt;stroke-linejoin:miter;stroke-opacity:1" />
      <path
         id="path5179-4"
         d="m 44.242814,268.47248 c 2.16036,2.32984 3.69597,3.68455 6.39033,4.8181 l -2.25474,2.37534 c -1.75822,-0.4811 -4.4947,-2.25029 -6.466191,-4.71336 z"
         style="fill:#000000;fill-opacity:1;stroke:none;stroke-width:0.232607px;stroke-linecap:butt;stroke-linejoin:miter;stroke-opacity:1" />
      <path
         id="path5181-9"
         d="m 36.34623,269.75139 1.807326,-1.94182 0.945258,0.0785 c 0.214586,1.01318 0.973123,2.30836 2.192068,3.54626 l 0.150701,1.36006 -2.012965,2.12861 c -1.138462,-1.0616 -2.682777,-3.04906 -3.082388,-5.17157 z"
         style="fill:#000022;fill-opacity:0.607843;stroke:none;stroke-width:0.201537px;stroke-linecap:butt;stroke-linejoin:miter;stroke-opacity:1" />
      <path
         id="path5187-5"
         d="m 48.910954,272.10777 c 3.56261,2.25666 4.29497,0.78295 4.29497,0.78295 -0.0577,0.22634 -0.55619,0.44265 -0.55619,0.44265 l -4.90941,5.11126 -0.34335,0.0243 -3.53179,3.70412 c -0.39824,0.2883 -6.528196,-0.56193 -9.918447,-6.61147 0,0 5.116618,3.06104 8.392207,1.50854 0,0 -0.723105,-0.39188 -1.501859,-0.975 0,0 3.979059,0.63515 8.073869,-3.98737 z"
         style="fill:#000000;fill-opacity:0.320261;stroke:none;stroke-width:0.201537px;stroke-linecap:butt;stroke-linejoin:miter;stroke-opacity:1" />
    </g>
    <g
       id="g1097"
       transform="translate(-0.37400442,1.2054779)"
       style="opacity:0.65840557">
      <text
         xml:space="preserve"
         style="font-size:7.7611px;line-height:1.25;font-family:sans-serif;-inkscape-font-specification:sans-serif;letter-spacing:0px;word-spacing:0px;opacity:0.763206;fill:#000000;fill-opacity:1;stroke:none;stroke-width:0.264583;stroke-dasharray:none;stroke-opacity:1;filter:url(#filter1089)"
         x="1.9482965"
         y="303.04221"
         id="text456-5"><tspan
           id="tspan454-6"
           style="font-style:normal;font-variant:normal;font-weight:normal;font-stretch:normal;font-size:11.2889px;font-family:Ethnocentric;-inkscape-font-specification:'Ethnocentric, Normal';font-variant-ligatures:normal;font-variant-caps:normal;font-variant-numeric:normal;font-variant-east-asian:normal;fill:#000000;fill-opacity:1;stroke:none;stroke-width:0.264583;stroke-dasharray:none;stroke-opacity:1"
           x="1.9482965"
           y="303.04221">GAIA SKY</tspan></text>
      <text
         xml:space="preserve"
         style="font-size:7.7611px;line-height:1.25;font-family:sans-serif;-inkscape-font-specification:sans-serif;letter-spacing:0px;word-spacing:0px;opacity:1;fill:#ffffff;fill-opacity:1;stroke:none;stroke-width:0.264583;stroke-dasharray:none;stroke-opacity:1"
         x="1.3339903"
         y="302.68396"
         id="text456"><tspan
           id="tspan454"
           style="font-style:normal;font-variant:normal;font-weight:normal;font-stretch:normal;font-size:11.2889px;font-family:Ethnocentric;-inkscape-font-specification:'Ethnocentric, Normal';font-variant-ligatures:normal;font-variant-caps:normal;font-variant-numeric:normal;font-variant-east-asian:normal;fill:#ffffff;fill-opacity:1;stroke:none;stroke-width:0.264583;stroke-dasharray:none;stroke-opacity:1"
           x="1.3339903"
           y="302.68396">GAIA SKY</tspan></text>
    </g>
  </g>
</svg>
