<?xml version="1.0" encoding="UTF-8" standalone="no"?>
<!-- Created with Inkscape (http://www.inkscape.org/) -->

<svg
   xmlns:dc="http://purl.org/dc/elements/1.1/"
   xmlns:cc="http://creativecommons.org/ns#"
   xmlns:rdf="http://www.w3.org/1999/02/22-rdf-syntax-ns#"
   xmlns:svg="http://www.w3.org/2000/svg"
   xmlns="http://www.w3.org/2000/svg"
   xmlns:sodipodi="http://sodipodi.sourceforge.net/DTD/sodipodi-0.dtd"
   xmlns:inkscape="http://www.inkscape.org/namespaces/inkscape"
   width="140"
   height="140"
   viewBox="0 0 37.041666 37.041667"
   version="1.1"
   id="svg1688"
   inkscape:version="0.92.3 (2405546, 2018-03-11)"
   sodipodi:docname="ic_launcher.svg"
   inkscape:export-filename="/home/tsagrista/git/gaiasky/assets/icon/gaia_spacecraft.png"
   inkscape:export-xdpi="150"
   inkscape:export-ydpi="150">
  <defs
     id="defs1682" />
  <sodipodi:namedview
     id="base"
     pagecolor="#ffffff"
     bordercolor="#666666"
     borderopacity="1.0"
     inkscape:pageopacity="0.0"
     inkscape:pageshadow="2"
     inkscape:zoom="5.6"
     inkscape:cx="129.63946"
     inkscape:cy="108.60779"
     inkscape:document-units="px"
     inkscape:current-layer="layer1"
     showgrid="false"
     inkscape:window-width="3796"
     inkscape:window-height="2031"
     inkscape:window-x="1940"
     inkscape:window-y="107"
     inkscape:window-maximized="0"
     units="px" />
  <metadata
     id="metadata1685">
    <rdf:RDF>
      <cc:Work
         rdf:about="">
        <dc:format>image/svg+xml</dc:format>
        <dc:type
           rdf:resource="http://purl.org/dc/dcmitype/StillImage" />
        <dc:title></dc:title>
      </cc:Work>
    </rdf:RDF>
  </metadata>
  <g
     inkscape:label="Layer 1"
     inkscape:groupmode="layer"
     id="layer1"
     transform="translate(0,-259.95833)">
    <ellipse
       transform="rotate(43.661262)"
       ry="8.1120872"
       rx="20.485588"
       cy="190.09515"
       cx="205.64087"
       id="path5076-4-5-3"
       style="fill:#b77815;fill-opacity:1;stroke:none;stroke-width:0.76839775;stroke-linecap:round;stroke-linejoin:round;stroke-miterlimit:4;stroke-dasharray:none;stroke-dashoffset:0;stroke-opacity:1;paint-order:normal" />
    <ellipse
       transform="rotate(43.661262)"
       ry="8.1120872"
       rx="20.485588"
       cy="189.75076"
       cx="205.6241"
       id="path5076-4-3"
       style="fill:#cc8a21;fill-opacity:1;stroke:none;stroke-width:0.76839775;stroke-linecap:round;stroke-linejoin:round;stroke-miterlimit:4;stroke-dasharray:none;stroke-dashoffset:0;stroke-opacity:1;paint-order:normal" />
    <ellipse
       transform="rotate(43.661262)"
       ry="8.0415478"
       rx="20.307453"
       cy="188.9957"
       cx="205.70045"
       id="path5076-2"
       style="fill:#444543;fill-opacity:1;stroke:none;stroke-width:0.76171601;stroke-linecap:round;stroke-linejoin:round;stroke-miterlimit:4;stroke-dasharray:none;stroke-dashoffset:0;stroke-opacity:1;paint-order:normal" />
    <path
       sodipodi:nodetypes="ccccc"
       inkscape:connector-curvature="0"
       id="path5102-1"
       d="m 11.93066,283.74951 3.80538,3.40293 0.897114,-2.43286 -2.776533,-2.50902 z"
       style="fill:#e3a02a;fill-opacity:1;stroke:none;stroke-width:0.20153736px;stroke-linecap:butt;stroke-linejoin:miter;stroke-opacity:1" />
    <path
       sodipodi:nodetypes="ccccc"
       inkscape:connector-curvature="0"
       id="path5104-9"
       d="m 3.3109752,271.12643 1.716546,3.74875 3.5277128,0.76352 -1.7800545,-3.00029 z"
       style="fill:#e3a02a;fill-opacity:1;stroke:none;stroke-width:0.20153736px;stroke-linecap:butt;stroke-linejoin:miter;stroke-opacity:1" />
    <path
       sodipodi:nodetypes="ccccc"
       inkscape:connector-curvature="0"
       id="path5106-8"
       d="m 3.7528582,264.61835 2.4526793,2.1296 1.758679,-0.99506 -1.902945,-2.09745 z"
       style="fill:#e3a02a;fill-opacity:1;stroke:none;stroke-width:0.20153736px;stroke-linecap:butt;stroke-linejoin:miter;stroke-opacity:1" />
    <path
       sodipodi:nodetypes="ccccc"
       inkscape:connector-curvature="0"
       id="path5183-3"
       d="m 14.507743,276.18357 8.467753,15.74951 c 6.38041,3.45075 9.44761,1.45315 9.81571,1.03056 l -8.39898,-14.34717 z"
       style="fill:#1c191a;fill-opacity:1;stroke:none;stroke-width:0.20153736px;stroke-linecap:butt;stroke-linejoin:miter;stroke-opacity:1" />
    <path
       sodipodi:nodetypes="ccccc"
       inkscape:connector-curvature="0"
       id="path5108-9"
       d="m 24.849856,292.80724 c 1.2205,0.62376 3.33135,1.04019 3.67835,1.048 l -1.63445,-2.9317 -3.18053,-1.31161 z"
       style="fill:#825000;fill-opacity:1;stroke:none;stroke-width:0.20153736px;stroke-linecap:butt;stroke-linejoin:miter;stroke-opacity:1" />
    <path
       sodipodi:nodetypes="ccccc"
       inkscape:connector-curvature="0"
       id="path5110-0"
       d="m 33.977616,288.66108 -0.1708,2.70389 -1.75563,-1.56991 0.0323,-2.46666 z"
       style="fill:#e3a02a;fill-opacity:1;stroke:none;stroke-width:0.20153736px;stroke-linecap:butt;stroke-linejoin:miter;stroke-opacity:1" />
    <path
       sodipodi:nodetypes="ccccc"
       inkscape:connector-curvature="0"
       id="path5112-5"
       d="m 29.910546,279.83746 1.87,2.99818 -1.99691,-0.7273 -1.69633,-2.49826 z"
       style="fill:#e3a02a;fill-opacity:1;stroke:none;stroke-width:0.20153736px;stroke-linecap:butt;stroke-linejoin:miter;stroke-opacity:1" />
    <path
       inkscape:connector-curvature="0"
       id="path5114-2"
       d="m 12.680739,265.01269 3.153803,1.70822 0.598499,2.11894 -2.590664,-1.4874 z"
       style="fill:#e3a02a;fill-opacity:1;stroke:none;stroke-width:0.20153736px;stroke-linecap:butt;stroke-linejoin:miter;stroke-opacity:1" />
    <path
       sodipodi:nodetypes="ccccc"
       inkscape:connector-curvature="0"
       id="path5146-6"
       d="m 18.503719,266.82052 -5.068092,5.33668 c 0.164568,5.9526 6.63659,10.58687 10.990569,10.63784 l 5.20591,-5.42901 z"
       style="fill:#525058;fill-opacity:1;stroke:none;stroke-width:0.20153736px;stroke-linecap:butt;stroke-linejoin:miter;stroke-opacity:1" />
    <path
       sodipodi:nodetypes="ccccc"
       inkscape:connector-curvature="0"
       id="path5148-6"
       d="m 22.298684,262.55723 -5.480299,5.65994 c -0.795182,5.18592 6.097381,11.3064 11.483151,10.84962 l 5.41312,-5.63985 z"
       style="fill:#767677;fill-opacity:1;stroke:none;stroke-width:0.20153736px;stroke-linecap:butt;stroke-linejoin:miter;stroke-opacity:1" />
    <ellipse
       transform="rotate(43.661262)"
       ry="2.5911946"
       rx="7.9805198"
       cy="174.74594"
       cx="205.30795"
       id="path5150-4"
       style="fill:#c5c5c5;fill-opacity:1;stroke:none;stroke-width:0.76171601;stroke-linecap:round;stroke-linejoin:round;stroke-miterlimit:4;stroke-dasharray:none;stroke-dashoffset:0;stroke-opacity:1;paint-order:normal" />
    <path
       sodipodi:nodetypes="cccc"
       inkscape:connector-curvature="0"
       id="path5152-7"
       d="m 29.422556,266.7209 0.0496,6.00905 c 2.65645,1.76094 4.069,1.31974 4.29496,0.78295 z"
       style="fill:#a7aaa8;fill-opacity:1;stroke:none;stroke-width:0.1984238px;stroke-linecap:butt;stroke-linejoin:miter;stroke-opacity:1" />
    <path
       sodipodi:nodetypes="ccccc"
       inkscape:connector-curvature="0"
       id="path5154-3"
       d="m 29.165946,266.56913 c -0.008,0.35019 0.24963,0.49941 0.48452,0.47482 l 0.3601,-0.60741 c 0.0297,-0.093 -0.123,-0.25861 -0.25784,-0.24112 z"
       style="fill:#28282b;fill-opacity:1;stroke:none;stroke-width:0.20153736px;stroke-linecap:butt;stroke-linejoin:miter;stroke-opacity:1" />
    <path
       sodipodi:nodetypes="ccccc"
       inkscape:connector-curvature="0"
       id="path5175-6"
       d="m 29.842086,266.36544 c 0,0 0.0901,0.0842 0.16848,0.0711 l -0.3601,0.60742 c 0,0 -0.18326,0.0322 -0.30842,-0.0762 z"
       style="fill:#c8c0c5;fill-opacity:1;stroke:none;stroke-width:0.20153736px;stroke-linecap:butt;stroke-linejoin:miter;stroke-opacity:1" />
    <path
       sodipodi:nodetypes="ccccc"
       inkscape:connector-curvature="0"
       id="path5177-0"
       d="m 22.590146,265.77046 -2.074689,2.17396 c 0,0 -0.935916,-1.92542 -0.691381,-2.89843 l 2.075842,-2.12311 c -0.26225,1.30433 0.690228,2.84758 0.690228,2.84758 z"
       style="fill:#000000;fill-opacity:1;stroke:none;stroke-width:0.20153736px;stroke-linecap:butt;stroke-linejoin:miter;stroke-opacity:1" />
    <path
       sodipodi:nodetypes="ccccc"
       inkscape:connector-curvature="0"
       id="path5179-4"
       d="m 24.804046,269.09466 c 2.16036,2.32984 3.69597,3.68455 6.39033,4.8181 l -2.25474,2.37534 c -1.75822,-0.4811 -4.4947,-2.25029 -6.466191,-4.71336 z"
       style="fill:#000000;fill-opacity:1;stroke:none;stroke-width:0.2326065px;stroke-linecap:butt;stroke-linejoin:miter;stroke-opacity:1" />
    <path
       sodipodi:nodetypes="ccccccc"
       inkscape:connector-curvature="0"
       id="path5181-9"
       d="m 16.907462,270.37357 1.807326,-1.94182 0.945258,0.0785 c 0.214586,1.01318 0.973123,2.30836 2.192068,3.54626 l 0.150701,1.36006 -2.012965,2.12861 c -1.138462,-1.0616 -2.682777,-3.04906 -3.082388,-5.17157 z"
       style="fill:#000022;fill-opacity:0.60784314;stroke:none;stroke-width:0.20153736px;stroke-linecap:butt;stroke-linejoin:miter;stroke-opacity:1" />
    <path
       sodipodi:nodetypes="cccccccccc"
       inkscape:connector-curvature="0"
       id="path5187-5"
       d="m 29.472186,272.72995 c 3.56261,2.25666 4.29497,0.78295 4.29497,0.78295 -0.0577,0.22634 -0.55619,0.44265 -0.55619,0.44265 l -4.90941,5.11126 -0.34335,0.0243 -3.53179,3.70412 c -0.39824,0.2883 -6.528196,-0.56193 -9.918447,-6.61147 0,0 5.116618,3.06104 8.392207,1.50854 0,0 -0.723105,-0.39188 -1.501859,-0.975 0,0 3.979059,0.63515 8.073869,-3.98737 z"
       style="fill:#000000;fill-opacity:0.32026146;stroke:none;stroke-width:0.20153736px;stroke-linecap:butt;stroke-linejoin:miter;stroke-opacity:1" />
  </g>
</svg>
